<svg width="1280" height="720" xmlns="http://www.w3.org/2000/svg" xmlns:xlink="http://www.w3.org/1999/xlink" overflow="hidden"><g><rect x="0" y="0" width="1280" height="720" fill="#FFFFFF"/><path d="M768 236C768 211.147 787.923 191 812.5 191 837.077 191 857 211.147 857 236 857 260.853 837.077 281 812.5 281 787.923 281 768 260.853 768 236Z" fill="#51247A" fill-rule="evenodd"/><text fill="#FFFFFF" font-family="Cambria,Cambria_MSFontService,sans-serif" font-weight="400" font-size="27" transform="translate(786.608 244)">Sp1</text><text fill="#FFFFFF" font-family="Cambria,Cambria_MSFontService,sans-serif" font-weight="400" font-size="18" transform="translate(829.441 250)">t</text><path d="M768 392C768 367.147 788.147 347 813 347 837.853 347 858 367.147 858 392 858 416.853 837.853 437 813 437 788.147 437 768 416.853 768 392Z" fill="#0070C0" fill-rule="evenodd"/><text fill="#FFFFFF" font-family="Cambria,Cambria_MSFontService,sans-serif" font-weight="400" font-size="27" transform="translate(786.608 400)">Sp2</text><text fill="#FFFFFF" font-family="Cambria,Cambria_MSFontService,sans-serif" font-weight="400" font-size="18" transform="translate(829.441 406)">t</text><path d="M768 535C768 510.147 787.923 490 812.5 490 837.077 490 857 510.147 857 535 857 559.853 837.077 580 812.5 580 787.923 580 768 559.853 768 535Z" fill="#FF0000" fill-rule="evenodd"/><text fill="#FFFFFF" font-family="Cambria,Cambria_MSFontService,sans-serif" font-weight="400" font-size="27" transform="translate(786.608 543)">Sp3</text><text fill="#FFFFFF" font-family="Cambria,Cambria_MSFontService,sans-serif" font-weight="400" font-size="18" transform="translate(829.441 549)">t</text><path d="M629 99C629 74.1472 649.147 54 674 54 698.853 54 719 74.1472 719 99 719 123.853 698.853 144 674 144 649.147 144 629 123.853 629 99Z" fill="#7F7F7F" fill-rule="evenodd"/><text fill="#FFFFFF" font-family="Cambria,Cambria_MSFontService,sans-serif" font-weight="400" font-size="27" transform="translate(654.324 107)">°</text><text fill="#FFFFFF" font-family="Cambria,Cambria_MSFontService,sans-serif" font-weight="400" font-size="27" transform="translate(664.324 107)">C</text><text fill="#FFFFFF" font-family="Cambria,Cambria_MSFontService,sans-serif" font-weight="400" font-size="18" transform="translate(679.324 113)">t</text><path d="M508 101C508 76.1472 527.923 56 552.5 56 577.077 56 597 76.1472 597 101 597 125.853 577.077 146 552.5 146 527.923 146 508 125.853 508 101Z" fill="#7F7F7F" fill-rule="evenodd"/><text fill="#FFFFFF" font-family="Cambria,Cambria_MSFontService,sans-serif" font-weight="400" font-size="27" transform="translate(532.706 109)">°</text><text fill="#FFFFFF" font-family="Cambria,Cambria_MSFontService,sans-serif" font-weight="400" font-size="27" transform="translate(542.706 109)">C</text><text fill="#FFFFFF" font-family="Cambria,Cambria_MSFontService,sans-serif" font-weight="400" font-size="18" transform="translate(557.706 115)">t</text><text fill="#FFFFFF" font-family="Cambria,Cambria_MSFontService,sans-serif" font-weight="400" font-size="18" transform="translate(563.706 115)">-</text><text fill="#FFFFFF" font-family="Cambria,Cambria_MSFontService,sans-serif" font-weight="400" font-size="18" transform="translate(569.54 115)">1</text><path d="M385 101C385 76.1472 405.147 56 430 56 454.853 56 475 76.1472 475 101 475 125.853 454.853 146 430 146 405.147 146 385 125.853 385 101Z" fill="#7F7F7F" fill-rule="evenodd"/><text fill="#FFFFFF" font-family="Cambria,Cambria_MSFontService,sans-serif" font-weight="400" font-size="27" transform="translate(409.872 109)">°</text><text fill="#FFFFFF" font-family="Cambria,Cambria_MSFontService,sans-serif" font-weight="400" font-size="27" transform="translate(419.872 109)">C</text><text fill="#FFFFFF" font-family="Cambria,Cambria_MSFontService,sans-serif" font-weight="400" font-size="18" transform="translate(434.872 115)">t</text><text fill="#FFFFFF" font-family="Cambria,Cambria_MSFontService,sans-serif" font-weight="400" font-size="18" transform="translate(440.872 115)">-</text><text fill="#FFFFFF" font-family="Cambria,Cambria_MSFontService,sans-serif" font-weight="400" font-size="18" transform="translate(446.705 115)">…</text><path d="M267 101C267 76.1472 287.147 56 312 56 336.853 56 357 76.1472 357 101 357 125.853 336.853 146 312 146 287.147 146 267 125.853 267 101Z" fill="#7F7F7F" fill-rule="evenodd"/><text fill="#FFFFFF" font-family="Cambria,Cambria_MSFontService,sans-serif" font-weight="400" font-size="27" transform="translate(291.762 109)">°</text><text fill="#FFFFFF" font-family="Cambria,Cambria_MSFontService,sans-serif" font-weight="400" font-size="27" transform="translate(301.762 109)">C</text><text fill="#FFFFFF" font-family="Cambria,Cambria_MSFontService,sans-serif" font-weight="400" font-size="18" transform="translate(316.762 115)">t</text><text fill="#FFFFFF" font-family="Cambria,Cambria_MSFontService,sans-serif" font-weight="400" font-size="18" transform="translate(322.762 115)">-</text><text fill="#FFFFFF" font-family="Cambria,Cambria_MSFontService,sans-serif" font-weight="400" font-size="18" transform="translate(328.595 115)">6</text><path d="M0.13245-1.99561 5.63958-1.6301 10.5817-0.638797 12.6959 0.0705971 14.4605 0.927751 15.9563 2.13509 16.4807 3.36989 16.1249 2.81205 16.8234 3.58642 16.0486 3.05639 18.0225 3.80644 17.758 3.72635 20.8252 4.42774 20.6914 4.40191 24.6696 5.03032 24.5817 5.01844 29.2888 5.54955 29.1935 5.5411 35.8711 5.97271 35.6131 9.96438 28.8878 9.52969 24.0892 8.98825 19.9999 8.34228 16.7312 7.59481 14.1765 6.62405 12.93 5.24206 12.47 4.15894 13.0548 4.93355 12.1255 4.1835 12.5078 4.42618 11.0639 3.72479 11.3015 3.8219 9.42863 3.19348 9.67151 3.25832 4.98221 2.31772 5.24309 2.35239-0.13245 1.99561ZM33.944 1.90497 45.7365 8.3032 33.5424 13.8982Z" fill="#808080" transform="matrix(1.83697e-16 1 1 -1.83697e-16 674 138)"/><path d="M0.326806-1.97312 2.74111-1.57324 5.31233-0.32209 7.68999 1.57415 9.90809 4.02643 11.9931 6.98368 13.9549 10.4066 15.7924 14.2573 17.5069 18.5203 20.4645 27.9789 22.7424 38.525 24.2064 49.7878 24.7206 61.3283 25.2309 72.7841 25.2162 72.6153 26.6585 83.7112 26.6301 83.5468 28.8713 93.9229 28.8253 93.7483 31.7321 103.045 31.6788 102.895 33.3403 107.026 33.2898 106.911 35.0677 110.638 34.9979 110.504 36.8757 113.781 36.5067 113.314 38.769 115.431 36.0366 118.352 33.5548 116.03 31.4901 112.428 29.6526 108.577 27.9381 104.314 24.9806 94.8558 22.7027 84.3096 21.2387 73.0468 20.7245 61.5063 20.2141 50.0506 20.2288 50.2194 18.7865 39.1235 18.8149 39.2879 16.5737 28.9117 16.6198 29.0864 13.7129 19.7898 13.7662 19.9392 12.1047 15.8082 12.1552 15.9232 10.3773 12.1971 10.4471 12.3304 8.56928 9.05406 8.66988 9.21197 6.70884 6.43049 6.86017 6.61967 4.83256 4.378 5.06879 4.6 2.99126 2.94311 3.36319 3.17788 1.25237 2.15076 1.80066 2.32549-0.326806 1.97312ZM39.3604 110.877 45.4449 122.835 32.2283 120.528Z" fill="#808080" transform="matrix(1.83697e-16 1 1 -1.83697e-16 550 143)"/><path d="M427.049 136.001 448.131 136.512 468.586 137.96 478.378 138.995 487.747 140.214 496.625 141.601 504.931 143.14 512.586 144.817 519.512 146.617 525.635 148.528 530.888 150.545 535.213 152.675 538.574 154.97 540.916 157.591 541.691 160.141 542.338 162.268 541.916 161.517 543.802 163.628 543.438 163.309 546.481 165.387 546.237 165.244 550.353 167.272 550.186 167.199 555.294 169.16 555.173 169.118 561.189 170.996 561.096 170.969 567.938 172.747 567.863 172.729 575.448 174.391 575.385 174.378 583.631 175.906 583.576 175.897 592.4 177.275 592.349 177.268 601.669 178.48 601.622 178.474 611.355 179.503 611.286 179.497 631.661 180.94 631.568 180.935 642.607 181.203 642.51 185.202 631.425 184.933 610.969 183.485 601.177 182.45 591.808 181.231 582.93 179.844 574.624 178.305 566.969 176.628 560.043 174.828 553.92 172.917 548.667 170.9 544.342 168.77 540.982 166.475 538.639 163.854 537.864 161.304 537.217 159.177 537.639 159.928 535.753 157.817 536.117 158.136 533.074 156.058 533.318 156.201 529.202 154.173 529.369 154.246 524.261 152.285 524.382 152.327 518.366 150.449 518.459 150.476 511.617 148.698 511.692 148.716 504.107 147.055 504.17 147.067 495.924 145.539 495.98 145.549 487.155 144.17 487.206 144.177 477.886 142.965 477.933 142.971 468.2 141.942 468.269 141.948 447.894 140.505 447.987 140.51 426.951 139.999ZM640.704 177.156 652.555 183.445 640.413 189.152Z" fill="#808080"/><path d="M0.336088-1.97156 3.39469-1.45016 6.62258 0.180612 9.66773 2.71448 12.5804 6.07263 15.4027 10.2204 18.1581 15.1357 20.8573 20.7974 23.5038 27.1827 26.0976 34.2668 28.6363 42.0235 31.1167 50.4258 33.5344 59.4459 35.8851 69.0553 38.1639 79.2256 40.3657 89.9276 42.4856 101.132 44.5183 112.811 46.4586 124.933 48.3013 137.471 50.0417 150.399 53.1901 177.277 55.8631 205.348 58.0173 234.37 59.6094 264.105 60.5964 294.317 60.8236 314.746 56.8238 314.79 56.5969 294.383 56.5978 294.426 55.6122 264.256 55.614 264.298 54.0241 234.604 54.0267 234.645 51.8757 205.665 51.8792 205.707 49.2101 177.678 49.2147 177.721 46.0708 150.882 46.0751 150.916 44.3386 138.017 44.342 138.041 42.503 125.528 42.5069 125.553 40.5707 113.456 40.5752 113.483 38.5474 101.833 38.5526 101.862 36.4384 90.6869 36.4446 90.7181 34.2494 80.0488 34.2568 80.083 31.9861 69.9489 31.995 69.9869 29.6542 60.4177 29.6651 60.4603 27.2596 51.4857 27.2732 51.5342 24.8083 43.184 24.8257 43.2399 22.3068 35.5439 22.3295 35.6095 19.7621 28.5974 19.7926 28.6755 17.182 22.377 17.2242 22.4719 14.5759 16.9167 14.6366 17.034 11.9559 12.2519 12.047 12.399 9.33923 8.41971 9.48186 8.60502 6.75256 5.45824 6.98419 5.68518 4.23871 3.40067 4.61609 3.64841 1.85981 2.25589 2.42559 2.44234-0.336088 1.97156ZM64.8011 312.702 58.9349 324.768 52.8018 312.835Z" fill="#808080" transform="matrix(1.83697e-16 1 1 -1.83697e-16 300 143)"/><text font-family="Constantia,Constantia_MSFontService,sans-serif" font-weight="400" font-size="37" transform="translate(40.1512 44)">Community</text><text font-family="Constantia,Constantia_MSFontService,sans-serif" font-weight="400" font-size="37" transform="translate(241.951 44)">mintemp</text><text font-family="Constantia,Constantia_MSFontService,sans-serif" font-weight="400" font-size="37" transform="translate(397.578 44)">effect changes smoothly over lags</text><path d="M626 206.167C626 197.238 633.238 190 642.167 190L706.833 190C715.762 190 723 197.238 723 206.167L723 564.833C723 573.762 715.762 581 706.833 581L642.167 581C633.238 581 626 573.762 626 564.833Z" stroke="#808080" stroke-width="4" stroke-miterlimit="8" fill="#808080" fill-rule="evenodd"/><text fill="#780E1F" font-family="Constantia,Constantia_MSFontService,sans-serif" font-weight="400" font-size="37" transform="translate(40.1512 622)">Species</text><text fill="#780E1F" font-family="Constantia,Constantia_MSFontService,sans-serif" font-weight="400" font-size="37" transform="translate(167.091 622)">mintemp</text><text fill="#780E1F" font-family="Constantia,Constantia_MSFontService,sans-serif" font-weight="400" font-size="37" transform="translate(322.718 622)">effects deviate smoothly from the community effect</text><path d="M674.596 222.003 682.962 222.54 686.9 223.171 690.433 223.99 693.474 224.977 695.94 226.136 697.805 227.592 698.464 229.094 698.972 230.25 698.521 229.671 699.955 230.791 699.67 230.615 701.898 231.662 701.724 231.593 704.614 232.531 704.489 232.497 707.909 233.29 707.766 233.264 712.396 233.873 712.005 236.847 707.302 236.229 703.749 235.405 700.708 234.418 698.242 233.259 696.377 231.803 695.717 230.3 695.21 229.144 695.66 229.724 694.226 228.604 694.511 228.779 692.283 227.732 692.458 227.802 689.568 226.863 689.692 226.898 686.273 226.105 686.375 226.125 682.558 225.514 682.699 225.53 674.404 224.997ZM711.025 230.764 719.682 235.895 710.384 239.741Z" fill="#808080"/><path d="M674.586 362.003 678.74 362.24 682.843 362.925 686.689 363.992 690.162 365.388 693.153 367.069 695.554 369.023 697.228 371.287 697.79 373.509 698.281 375.445 698.033 374.921 699.419 376.796 699.16 376.525 701.314 378.278 701.102 378.134 703.896 379.704 703.719 379.62 707.025 380.948 706.795 380.876 711.063 381.838 710.404 384.765 706.018 383.776 702.51 382.367 699.52 380.686 697.119 378.732 695.445 376.468 694.882 374.246 694.392 372.31 694.64 372.834 693.254 370.959 693.513 371.23 691.359 369.477 691.571 369.621 688.777 368.05 688.953 368.135 685.648 366.807 685.806 366.861 682.117 365.837 682.271 365.871 678.326 365.213 678.487 365.231 674.414 364.998ZM709.818 378.647 718.173 384.255 708.674 387.574Z" fill="#808080"/><path d="M673.706 517.014 675.575 517.273 677.589 518.085 680.856 520.739 683.138 524.444 683.81 526.641 684.028 528.721 684.006 528.577 684.205 529.549 684.021 529.077 684.6 530.041 684.288 529.672 686.486 531.547 686.198 531.353 689.614 533.107 689.43 533.027 693.861 534.598 693.729 534.558 698.971 535.885 698.862 535.862 704.713 536.886 704.591 536.869 709.82 537.345 709.548 540.333 704.257 539.851 698.289 538.807 692.925 537.449 688.334 535.821 684.673 533.943 682.155 531.796 681.317 530.401 681.052 529.107 680.842 527.098 680.899 527.381 680.326 525.506 680.483 525.854 678.435 522.53 678.767 522.907 675.872 520.556 676.257 520.783 674.624 520.124 674.98 520.219 673.295 519.986ZM708.436 534.263 717.173 539.255 707.937 543.249Z" fill="#808080"/><path d="M728.079 227.002 735.423 227.292 738.877 227.633 741.978 228.076 744.653 228.612 746.852 229.249 748.725 230.15 749.469 231.195 749.915 231.821 749.153 231.179 750.412 231.785 750.101 231.666 752.058 232.233 751.894 232.193 754.432 232.701 754.243 232.672 757.906 233.046 757.5 237.025 753.742 236.642 751.027 236.099 748.828 235.462 746.955 234.56 746.211 233.515 745.765 232.889 746.527 233.531 745.268 232.925 745.578 233.044 743.622 232.477 743.786 232.517 741.248 232.01 741.357 232.028 738.354 231.599 738.44 231.61 735.089 231.279 735.206 231.287 727.921 230.998ZM756.112 228.914 767.68 235.71 755.302 240.886Z" fill="#808080"/><path d="M728.167 385.007 731.777 385.309 735.157 386.164 737.774 387.487 738.923 388.655 739.28 389.717 738.739 388.883 739.419 389.509 738.666 389.074 740.589 389.68 740.361 389.622 743.349 390.189 743.236 390.171 747.112 390.679 747.038 390.671 751.624 391.1 751.544 391.094 757.79 391.426 757.578 395.42 751.291 395.086 746.629 394.65 742.66 394.13 739.5 393.53 737.039 392.755 735.653 391.48 735.279 390.368 735.747 391.131 735.152 390.525 735.676 390.908 733.55 389.833 733.962 389.987 730.956 389.227 731.279 389.281 727.833 388.993ZM755.857 387.368 767.68 393.71 755.513 399.363Z" fill="#808080"/><path d="M728.069 529.001 736.453 529.291 740.376 529.63 743.897 530.07 746.922 530.599 749.379 531.221 751.418 532.079 752.328 533.198 752.781 533.94 752.053 533.238 753.132 533.844 752.793 533.693 754.468 534.259 754.147 534.18 758.042 534.81 757.404 538.759 753.344 538.102 751.334 537.422 749.638 536.468 748.984 535.396 749.141 535.618 748.631 534.992 749.406 535.573 747.966 534.967 748.251 535.062 746.013 534.495 746.159 534.526 743.256 534.019 743.353 534.033 739.918 533.604 739.994 533.612 736.16 533.281 736.263 533.287 727.931 532.999ZM756.287 530.625 767.68 537.71 755.176 542.573Z" fill="#808080"/></g></svg>