<svg width="1280" height="720" xmlns="http://www.w3.org/2000/svg" xmlns:xlink="http://www.w3.org/1999/xlink" overflow="hidden"><g><rect x="0" y="0" width="1280" height="720" fill="#FFFFFF"/><path d="M768 236C768 211.147 787.923 191 812.5 191 837.077 191 857 211.147 857 236 857 260.853 837.077 281 812.5 281 787.923 281 768 260.853 768 236Z" fill="#51247A" fill-rule="evenodd"/><text fill="#FFFFFF" font-family="Cambria,Cambria_MSFontService,sans-serif" font-weight="400" font-size="27" transform="translate(786.608 244)">Sp1</text><text fill="#FFFFFF" font-family="Cambria,Cambria_MSFontService,sans-serif" font-weight="400" font-size="18" transform="translate(829.441 250)">t</text><path d="M768 392C768 367.147 788.147 347 813 347 837.853 347 858 367.147 858 392 858 416.853 837.853 437 813 437 788.147 437 768 416.853 768 392Z" fill="#0070C0" fill-rule="evenodd"/><text fill="#FFFFFF" font-family="Cambria,Cambria_MSFontService,sans-serif" font-weight="400" font-size="27" transform="translate(786.608 400)">Sp</text><text fill="#FFFFFF" font-family="Cambria,Cambria_MSFontService,sans-serif" font-weight="400" font-size="27" transform="translate(814.608 400)">2</text><text fill="#FFFFFF" font-family="Cambria,Cambria_MSFontService,sans-serif" font-weight="400" font-size="18" transform="translate(829.441 406)">t</text><path d="M768 535C768 510.147 787.923 490 812.5 490 837.077 490 857 510.147 857 535 857 559.853 837.077 580 812.5 580 787.923 580 768 559.853 768 535Z" fill="#FF0000" fill-rule="evenodd"/><text fill="#FFFFFF" font-family="Cambria,Cambria_MSFontService,sans-serif" font-weight="400" font-size="27" transform="translate(786.608 543)">Sp3</text><text fill="#FFFFFF" font-family="Cambria,Cambria_MSFontService,sans-serif" font-weight="400" font-size="18" transform="translate(829.441 549)">t</text><path d="M766 99C766 74.1472 786.147 54 811 54 835.853 54 856 74.1472 856 99 856 123.853 835.853 144 811 144 786.147 144 766 123.853 766 99Z" fill="#7F7F7F" fill-rule="evenodd"/><text fill="#FFFFFF" font-family="Cambria,Cambria_MSFontService,sans-serif" font-weight="400" font-size="27" transform="translate(791.332 107)">°</text><text fill="#FFFFFF" font-family="Cambria,Cambria_MSFontService,sans-serif" font-weight="400" font-size="27" transform="translate(801.332 107)">C</text><text fill="#FFFFFF" font-family="Cambria,Cambria_MSFontService,sans-serif" font-weight="400" font-size="18" transform="translate(816.332 113)">t</text><path d="M645 101C645 76.1472 664.923 56 689.5 56 714.077 56 734 76.1472 734 101 734 125.853 714.077 146 689.5 146 664.923 146 645 125.853 645 101Z" fill="#7F7F7F" fill-rule="evenodd"/><text fill="#FFFFFF" font-family="Cambria,Cambria_MSFontService,sans-serif" font-weight="400" font-size="27" transform="translate(669.714 109)">°</text><text fill="#FFFFFF" font-family="Cambria,Cambria_MSFontService,sans-serif" font-weight="400" font-size="27" transform="translate(679.714 109)">C</text><text fill="#FFFFFF" font-family="Cambria,Cambria_MSFontService,sans-serif" font-weight="400" font-size="18" transform="translate(694.714 115)">t</text><text fill="#FFFFFF" font-family="Cambria,Cambria_MSFontService,sans-serif" font-weight="400" font-size="18" transform="translate(700.714 115)">-</text><text fill="#FFFFFF" font-family="Cambria,Cambria_MSFontService,sans-serif" font-weight="400" font-size="18" transform="translate(706.548 115)">1</text><path d="M522 101C522 76.1472 542.147 56 567 56 591.853 56 612 76.1472 612 101 612 125.853 591.853 146 567 146 542.147 146 522 125.853 522 101Z" fill="#7F7F7F" fill-rule="evenodd"/><text fill="#FFFFFF" font-family="Cambria,Cambria_MSFontService,sans-serif" font-weight="400" font-size="27" transform="translate(546.88 109)">°</text><text fill="#FFFFFF" font-family="Cambria,Cambria_MSFontService,sans-serif" font-weight="400" font-size="27" transform="translate(556.88 109)">C</text><text fill="#FFFFFF" font-family="Cambria,Cambria_MSFontService,sans-serif" font-weight="400" font-size="18" transform="translate(571.88 115)">t</text><text fill="#FFFFFF" font-family="Cambria,Cambria_MSFontService,sans-serif" font-weight="400" font-size="18" transform="translate(577.88 115)">-</text><text fill="#FFFFFF" font-family="Cambria,Cambria_MSFontService,sans-serif" font-weight="400" font-size="18" transform="translate(583.713 115)">…</text><path d="M404 101C404 76.1472 424.147 56 449 56 473.853 56 494 76.1472 494 101 494 125.853 473.853 146 449 146 424.147 146 404 125.853 404 101Z" fill="#7F7F7F" fill-rule="evenodd"/><text fill="#FFFFFF" font-family="Cambria,Cambria_MSFontService,sans-serif" font-weight="400" font-size="27" transform="translate(428.769 109)">°</text><text fill="#FFFFFF" font-family="Cambria,Cambria_MSFontService,sans-serif" font-weight="400" font-size="27" transform="translate(438.769 109)">C</text><text fill="#FFFFFF" font-family="Cambria,Cambria_MSFontService,sans-serif" font-weight="400" font-size="18" transform="translate(453.769 115)">t</text><text fill="#FFFFFF" font-family="Cambria,Cambria_MSFontService,sans-serif" font-weight="400" font-size="18" transform="translate(459.769 115)">-</text><text fill="#FFFFFF" font-family="Cambria,Cambria_MSFontService,sans-serif" font-weight="400" font-size="18" transform="translate(465.603 115)">6</text><path d="M0.13245-1.99561 5.63958-1.6301 10.5817-0.638797 12.6959 0.0705971 14.4605 0.927751 15.9563 2.13509 16.4807 3.36989 16.1249 2.81205 16.8234 3.58642 16.0486 3.05639 18.0225 3.80644 17.758 3.72635 20.8252 4.42774 20.6914 4.40191 24.6696 5.03032 24.5817 5.01844 29.2888 5.54955 29.1935 5.5411 35.8711 5.97271 35.6131 9.96438 28.8878 9.52969 24.0892 8.98825 19.9999 8.34228 16.7312 7.59481 14.1765 6.62405 12.93 5.24206 12.47 4.15894 13.0548 4.93355 12.1255 4.1835 12.5078 4.42618 11.0639 3.72479 11.3015 3.8219 9.42863 3.19348 9.67151 3.25832 4.98221 2.31772 5.24309 2.35239-0.13245 1.99561ZM33.944 1.90497 45.7365 8.3032 33.5424 13.8982Z" fill="#808080" transform="matrix(1.83697e-16 1 1 -1.83697e-16 811 138)"/><path d="M0.326806-1.97312 2.74111-1.57324 5.31233-0.32209 7.68999 1.57415 9.90809 4.02643 11.9931 6.98368 13.9549 10.4066 15.7924 14.2573 17.5069 18.5203 20.4645 27.9789 22.7424 38.525 24.2064 49.7878 24.7206 61.3283 25.2309 72.7841 25.2162 72.6153 26.6585 83.7112 26.6301 83.5468 28.8713 93.9229 28.8253 93.7483 31.7321 103.045 31.6788 102.895 33.3403 107.026 33.2898 106.911 35.0677 110.638 34.9979 110.504 36.8757 113.781 36.5067 113.314 38.769 115.431 36.0366 118.352 33.5548 116.03 31.4901 112.428 29.6526 108.577 27.9381 104.314 24.9806 94.8558 22.7027 84.3096 21.2387 73.0468 20.7245 61.5063 20.2141 50.0506 20.2288 50.2194 18.7865 39.1235 18.8149 39.2879 16.5737 28.9117 16.6198 29.0864 13.7129 19.7898 13.7662 19.9392 12.1047 15.8082 12.1552 15.9232 10.3773 12.1971 10.4471 12.3304 8.56928 9.05406 8.66988 9.21197 6.70884 6.43049 6.86017 6.61967 4.83256 4.378 5.06879 4.6 2.99126 2.94311 3.36319 3.17788 1.25237 2.15076 1.80066 2.32549-0.326806 1.97312ZM39.3604 110.877 45.4449 122.835 32.2283 120.528Z" fill="#808080" transform="matrix(1.83697e-16 1 1 -1.83697e-16 687 143)"/><path d="M564.049 136.001 585.131 136.512 605.586 137.96 615.378 138.995 624.747 140.214 633.625 141.601 641.931 143.14 649.586 144.817 656.512 146.617 662.635 148.528 667.888 150.545 672.213 152.675 675.574 154.97 677.916 157.591 678.691 160.141 679.338 162.268 678.916 161.517 680.802 163.628 680.438 163.309 683.481 165.387 683.237 165.244 687.353 167.272 687.186 167.199 692.294 169.16 692.173 169.118 698.189 170.996 698.096 170.969 704.938 172.747 704.863 172.729 712.448 174.391 712.385 174.378 720.631 175.906 720.576 175.897 729.4 177.275 729.349 177.268 738.669 178.48 738.622 178.474 748.355 179.503 748.286 179.497 768.661 180.94 768.568 180.935 779.607 181.203 779.51 185.202 768.425 184.933 747.969 183.485 738.177 182.45 728.808 181.231 719.93 179.844 711.624 178.305 703.969 176.628 697.043 174.828 690.92 172.917 685.667 170.9 681.342 168.77 677.982 166.475 675.639 163.854 674.864 161.304 674.217 159.177 674.639 159.928 672.753 157.817 673.117 158.136 670.074 156.058 670.318 156.201 666.202 154.173 666.369 154.246 661.261 152.285 661.382 152.327 655.366 150.449 655.459 150.476 648.617 148.698 648.692 148.716 641.107 147.055 641.17 147.067 632.924 145.539 632.98 145.549 624.155 144.17 624.206 144.177 614.886 142.965 614.933 142.971 605.2 141.942 605.269 141.948 584.894 140.505 584.987 140.51 563.951 139.999ZM777.704 177.156 789.555 183.445 777.413 189.152Z" fill="#808080"/><path d="M0.336088-1.97156 3.39469-1.45016 6.62258 0.180612 9.66773 2.71448 12.5804 6.07263 15.4027 10.2204 18.1581 15.1357 20.8573 20.7974 23.5038 27.1827 26.0976 34.2668 28.6363 42.0235 31.1167 50.4258 33.5344 59.4459 35.8851 69.0553 38.1639 79.2256 40.3657 89.9276 42.4856 101.132 44.5183 112.811 46.4586 124.933 48.3013 137.471 50.0417 150.399 53.1901 177.277 55.8631 205.348 58.0173 234.37 59.6094 264.105 60.5964 294.317 60.8236 314.746 56.8238 314.79 56.5969 294.383 56.5978 294.426 55.6122 264.256 55.614 264.298 54.0241 234.604 54.0267 234.645 51.8757 205.665 51.8792 205.707 49.2101 177.678 49.2147 177.721 46.0708 150.882 46.0751 150.916 44.3386 138.017 44.342 138.041 42.503 125.528 42.5069 125.553 40.5707 113.456 40.5752 113.483 38.5474 101.833 38.5526 101.862 36.4384 90.6869 36.4446 90.7181 34.2494 80.0488 34.2568 80.083 31.9861 69.9489 31.995 69.9869 29.6542 60.4177 29.6651 60.4603 27.2596 51.4857 27.2732 51.5342 24.8083 43.184 24.8257 43.2399 22.3068 35.5439 22.3295 35.6095 19.7621 28.5974 19.7926 28.6755 17.182 22.377 17.2242 22.4719 14.5759 16.9167 14.6366 17.034 11.9559 12.2519 12.047 12.399 9.33923 8.41971 9.48186 8.60502 6.75256 5.45824 6.98419 5.68518 4.23871 3.40067 4.61609 3.64841 1.85981 2.25589 2.42559 2.44234-0.336088 1.97156ZM64.8011 312.702 58.9349 324.768 52.8018 312.835Z" fill="#808080" transform="matrix(1.83697e-16 1 1 -1.83697e-16 437 143)"/><text font-family="Constantia,Constantia_MSFontService,sans-serif" font-weight="400" font-size="37" transform="translate(177.159 44)">Community</text><text font-family="Constantia,Constantia_MSFontService,sans-serif" font-weight="400" font-size="37" transform="translate(378.959 44)">mintemp</text><text font-family="Constantia,Constantia_MSFontService,sans-serif" font-weight="400" font-size="37" transform="translate(534.586 44)">effect changes smoothly over lags</text><path d="M763 206.167C763 197.238 770.238 190 779.167 190L843.833 190C852.762 190 860 197.238 860 206.167L860 564.833C860 573.762 852.762 581 843.833 581L779.167 581C770.238 581 763 573.762 763 564.833Z" stroke="#808080" stroke-width="4" stroke-miterlimit="8" fill="none" fill-rule="evenodd"/></g></svg>