<svg width="1280" height="720" xmlns="http://www.w3.org/2000/svg" xmlns:xlink="http://www.w3.org/1999/xlink" overflow="hidden"><g><rect x="0" y="0" width="1280" height="720" fill="#FFFFFF"/><path d="M411 557.5C411 532.923 431.147 513 456 513 480.853 513 501 532.923 501 557.5 501 582.077 480.853 602 456 602 431.147 602 411 582.077 411 557.5Z" fill="#51247A" fill-rule="evenodd"/><text fill="#FFFFFF" font-family="Cambria,Cambria_MSFontService,sans-serif" font-weight="400" font-size="27" transform="translate(429.915 566)">Sp1</text><text fill="#FFFFFF" font-family="Cambria,Cambria_MSFontService,sans-serif" font-weight="400" font-size="18" transform="translate(472.748 572)">t</text><path d="M590 561C590 536.147 610.147 516 635 516 659.853 516 680 536.147 680 561 680 585.853 659.853 606 635 606 610.147 606 590 585.853 590 561Z" fill="#0070C0" fill-rule="evenodd"/><text fill="#FFFFFF" font-family="Cambria,Cambria_MSFontService,sans-serif" font-weight="400" font-size="27" transform="translate(609.191 569)">Sp</text><text fill="#FFFFFF" font-family="Cambria,Cambria_MSFontService,sans-serif" font-weight="400" font-size="27" transform="translate(637.191 569)">2</text><text fill="#FFFFFF" font-family="Cambria,Cambria_MSFontService,sans-serif" font-weight="400" font-size="18" transform="translate(652.024 575)">t</text><path d="M770 559C770 534.147 789.923 514 814.5 514 839.077 514 859 534.147 859 559 859 583.853 839.077 604 814.5 604 789.923 604 770 583.853 770 559Z" fill="#FF0000" fill-rule="evenodd"/><text fill="#FFFFFF" font-family="Cambria,Cambria_MSFontService,sans-serif" font-weight="400" font-size="27" transform="translate(788.718 567)">Sp</text><text fill="#FFFFFF" font-family="Cambria,Cambria_MSFontService,sans-serif" font-weight="400" font-size="27" transform="translate(816.718 567)">3</text><text fill="#FFFFFF" font-family="Cambria,Cambria_MSFontService,sans-serif" font-weight="400" font-size="18" transform="translate(831.551 573)">t</text><text fill="#780E1F" font-family="Constantia,Constantia_MSFontService,sans-serif" font-weight="400" font-size="37" transform="translate(148.813 164)">Hierarchical slopes for associations with NDVI moving average</text><path d="M0.846607-1.81198 164.48 74.6421 162.787 78.266-0.846607 1.81198ZM164.361 70.1715 172.693 80.687 159.281 81.0433Z" fill="#808080" transform="matrix(-1 0 0 1 635.693 277)"/><path d="M637 277 637 354.465 633 354.465 633 277ZM641 352.465 635 364.465 629 352.465Z" fill="#808080"/><path d="M635.847 275.188 799.48 351.642 797.786 355.266 634.153 278.812ZM799.361 347.171 807.693 357.687 794.281 358.043Z" fill="#808080"/><path d="M540 225.5C540 200.923 579.847 181 629 181 678.153 181 718 200.923 718 225.5 718 250.077 678.153 270 629 270 579.847 270 540 250.077 540 225.5Z" fill="#808080" fill-rule="evenodd"/><text fill="#FFFFFF" font-family="Cambria,Cambria_MSFontService,sans-serif" font-weight="400" font-size="27" transform="translate(563.094 235)">Normal(</text><text fill="#FFFFFF" font-family="Cambria,Cambria_MSFontService,sans-serif" font-weight="400" font-size="27" transform="translate(658.928 235)">μ</text><text fill="#FFFFFF" font-family="Cambria,Cambria_MSFontService,sans-serif" font-weight="400" font-size="27" transform="translate(673.428 235)">,</text><text fill="#FFFFFF" font-family="Cambria,Cambria_MSFontService,sans-serif" font-weight="400" font-size="27" transform="translate(678.928 235)">σ</text><text fill="#FFFFFF" font-family="Cambria,Cambria_MSFontService,sans-serif" font-weight="400" font-size="27" transform="translate(694.094 235)">)</text><path d="M411 414C411 389.147 431.147 369 456 369 480.853 369 501 389.147 501 414 501 438.853 480.853 459 456 459 431.147 459 411 438.853 411 414Z" fill="#808080" fill-rule="evenodd"/><text fill="#FFFFFF" font-family="Cambria,Cambria_MSFontService,sans-serif" font-weight="400" font-size="27" transform="translate(418.687 417)">β</text><text fill="#FFFFFF" font-family="Cambria,Cambria_MSFontService,sans-serif" font-weight="400" font-size="18" transform="translate(433.52 423)">NDVI[1]</text><path d="M590 418C590 393.147 610.147 373 635 373 659.853 373 680 393.147 680 418 680 442.853 659.853 463 635 463 610.147 463 590 442.853 590 418Z" fill="#808080" fill-rule="evenodd"/><path d="M770 416C770 391.147 789.923 371 814.5 371 839.077 371 859 391.147 859 416 859 440.853 839.077 461 814.5 461 789.923 461 770 440.853 770 416Z" fill="#808080" fill-rule="evenodd"/><text fill="#FFFFFF" font-family="Cambria,Cambria_MSFontService,sans-serif" font-weight="400" font-size="27" transform="translate(597.38 420)">β</text><text fill="#FFFFFF" font-family="Cambria,Cambria_MSFontService,sans-serif" font-weight="400" font-size="18" transform="translate(612.213 426)">NDVI[2]</text><text fill="#FFFFFF" font-family="Cambria,Cambria_MSFontService,sans-serif" font-weight="400" font-size="27" transform="translate(777.33 417)">β</text><text fill="#FFFFFF" font-family="Cambria,Cambria_MSFontService,sans-serif" font-weight="400" font-size="18" transform="translate(792.163 423)">NDVI[3]</text><path d="M637 471 637 505.432 633 505.432 633 471ZM641 503.432 635 515.432 629 503.432Z" fill="#808080"/><path d="M817 469 817 503.432 813 503.432 813 469ZM821 501.432 815 513.432 809 501.432Z" fill="#808080"/><path d="M457 468 457 502.432 453 502.432 453 468ZM461 500.432 455 512.432 449 500.432Z" fill="#808080"/></g></svg>